<mxfile host="app.diagrams.net" modified="2021-01-05T07:57:36.729Z" agent="5.0 (Windows NT 10.0; Win64; x64) AppleWebKit/537.36 (KHTML, like Gecko) Chrome/86.0.4240.111 Safari/537.36" etag="MOX5KCB2TYTUoavnxxVg" version="14.1.8" type="github">
  <diagram id="DJZTJg8167f6ACNMk_-o" name="Page-1">
    <mxGraphModel dx="1502" dy="1016" grid="1" gridSize="10" guides="1" tooltips="1" connect="1" arrows="1" fold="1" page="1" pageScale="1" pageWidth="827" pageHeight="1169" math="0" shadow="0">
      <root>
        <mxCell id="0" />
        <mxCell id="1" parent="0" />
        <mxCell id="gUNRV8-Y0UdjDV8tnXYS-2" value="旭客家" style="rounded=0;whiteSpace=wrap;html=1;fillColor=#B2C9AB;strokeColor=#788AA3;fontColor=#46495D;" parent="1" vertex="1">
          <mxGeometry x="230" y="70" width="120" height="60" as="geometry" />
        </mxCell>
        <mxCell id="gUNRV8-Y0UdjDV8tnXYS-8" value="第三方支付" style="rounded=0;whiteSpace=wrap;html=1;fillColor=#B2C9AB;strokeColor=#788AA3;fontColor=#46495D;" parent="1" vertex="1">
          <mxGeometry x="480" y="70" width="120" height="60" as="geometry" />
        </mxCell>
        <mxCell id="gUNRV8-Y0UdjDV8tnXYS-9" value="明源" style="rounded=0;whiteSpace=wrap;html=1;fillColor=#B2C9AB;strokeColor=#788AA3;fontColor=#46495D;" parent="1" vertex="1">
          <mxGeometry x="680" y="70" width="120" height="60" as="geometry" />
        </mxCell>
        <mxCell id="gUNRV8-Y0UdjDV8tnXYS-12" value="Actor" style="shape=umlActor;verticalLabelPosition=bottom;verticalAlign=top;html=1;outlineConnect=0;fillColor=#B2C9AB;strokeColor=#788AA3;fontColor=#46495D;" parent="1" vertex="1">
          <mxGeometry x="50" y="70" width="30" height="60" as="geometry" />
        </mxCell>
        <mxCell id="gUNRV8-Y0UdjDV8tnXYS-13" value="" style="endArrow=none;dashed=1;html=1;strokeColor=#788AA3;fontColor=#46495D;" parent="1" edge="1">
          <mxGeometry width="50" height="50" relative="1" as="geometry">
            <mxPoint x="64.58" y="910" as="sourcePoint" />
            <mxPoint x="64.58" y="160" as="targetPoint" />
          </mxGeometry>
        </mxCell>
        <mxCell id="gUNRV8-Y0UdjDV8tnXYS-14" value="" style="endArrow=none;dashed=1;html=1;strokeColor=#788AA3;fontColor=#46495D;" parent="1" source="gUNRV8-Y0UdjDV8tnXYS-18" edge="1">
          <mxGeometry width="50" height="50" relative="1" as="geometry">
            <mxPoint x="329.5" y="910" as="sourcePoint" />
            <mxPoint x="280" y="140" as="targetPoint" />
          </mxGeometry>
        </mxCell>
        <mxCell id="gUNRV8-Y0UdjDV8tnXYS-15" value="" style="endArrow=none;dashed=1;html=1;strokeColor=#788AA3;fontColor=#46495D;" parent="1" source="gUNRV8-Y0UdjDV8tnXYS-43" edge="1">
          <mxGeometry width="50" height="50" relative="1" as="geometry">
            <mxPoint x="539.5" y="910" as="sourcePoint" />
            <mxPoint x="539.5" y="160" as="targetPoint" />
          </mxGeometry>
        </mxCell>
        <mxCell id="gUNRV8-Y0UdjDV8tnXYS-16" value="" style="endArrow=none;dashed=1;html=1;strokeColor=#788AA3;fontColor=#46495D;" parent="1" source="gUNRV8-Y0UdjDV8tnXYS-33" edge="1">
          <mxGeometry width="50" height="50" relative="1" as="geometry">
            <mxPoint x="739.5" y="910" as="sourcePoint" />
            <mxPoint x="739.5" y="160" as="targetPoint" />
          </mxGeometry>
        </mxCell>
        <mxCell id="gUNRV8-Y0UdjDV8tnXYS-17" value="" style="endArrow=classic;html=1;strokeColor=#788AA3;fontColor=#46495D;entryX=-0.2;entryY=0.128;entryDx=0;entryDy=0;entryPerimeter=0;" parent="1" target="gUNRV8-Y0UdjDV8tnXYS-18" edge="1">
          <mxGeometry width="50" height="50" relative="1" as="geometry">
            <mxPoint x="70" y="178" as="sourcePoint" />
            <mxPoint x="320" y="200" as="targetPoint" />
          </mxGeometry>
        </mxCell>
        <mxCell id="gUNRV8-Y0UdjDV8tnXYS-18" value="" style="rounded=0;whiteSpace=wrap;html=1;fillColor=#B2C9AB;strokeColor=#788AA3;fontColor=#46495D;" parent="1" vertex="1">
          <mxGeometry x="270" y="170" width="20" height="60" as="geometry" />
        </mxCell>
        <mxCell id="gUNRV8-Y0UdjDV8tnXYS-19" value="" style="endArrow=none;dashed=1;html=1;strokeColor=#788AA3;fontColor=#46495D;" parent="1" source="gUNRV8-Y0UdjDV8tnXYS-72" target="gUNRV8-Y0UdjDV8tnXYS-18" edge="1">
          <mxGeometry width="50" height="50" relative="1" as="geometry">
            <mxPoint x="329.5" y="910" as="sourcePoint" />
            <mxPoint x="329.5" y="160" as="targetPoint" />
          </mxGeometry>
        </mxCell>
        <mxCell id="gUNRV8-Y0UdjDV8tnXYS-20" value="1.选择房间填写认购信息生成订单" style="text;html=1;align=center;verticalAlign=middle;resizable=0;points=[];autosize=1;fontColor=#46495D;" parent="1" vertex="1">
          <mxGeometry x="70" y="160" width="190" height="20" as="geometry" />
        </mxCell>
        <mxCell id="gUNRV8-Y0UdjDV8tnXYS-21" value="" style="endArrow=classic;html=1;exitX=1;exitY=0.5;exitDx=0;exitDy=0;strokeColor=#788AA3;fontColor=#46495D;entryX=0;entryY=0.5;entryDx=0;entryDy=0;" parent="1" source="gUNRV8-Y0UdjDV8tnXYS-29" target="gUNRV8-Y0UdjDV8tnXYS-22" edge="1">
          <mxGeometry width="50" height="50" relative="1" as="geometry">
            <mxPoint x="430" y="450" as="sourcePoint" />
            <mxPoint x="729" y="315" as="targetPoint" />
          </mxGeometry>
        </mxCell>
        <mxCell id="gUNRV8-Y0UdjDV8tnXYS-22" value="" style="rounded=0;whiteSpace=wrap;html=1;fillColor=#B2C9AB;strokeColor=#788AA3;fontColor=#46495D;" parent="1" vertex="1">
          <mxGeometry x="730" y="360" width="20" height="60" as="geometry" />
        </mxCell>
        <mxCell id="gUNRV8-Y0UdjDV8tnXYS-23" value="" style="endArrow=none;dashed=1;html=1;strokeColor=#788AA3;fontColor=#46495D;" parent="1" source="gUNRV8-Y0UdjDV8tnXYS-58" target="gUNRV8-Y0UdjDV8tnXYS-22" edge="1">
          <mxGeometry width="50" height="50" relative="1" as="geometry">
            <mxPoint x="739.5" y="1010" as="sourcePoint" />
            <mxPoint x="739.5" y="260" as="targetPoint" />
          </mxGeometry>
        </mxCell>
        <mxCell id="gUNRV8-Y0UdjDV8tnXYS-24" value="4.认购订单推送到明源系统，调用明源认购接口" style="text;html=1;align=center;verticalAlign=middle;resizable=0;points=[];autosize=1;fontColor=#46495D;" parent="1" vertex="1">
          <mxGeometry x="295" y="370" width="270" height="20" as="geometry" />
        </mxCell>
        <mxCell id="gUNRV8-Y0UdjDV8tnXYS-29" value="" style="rounded=0;whiteSpace=wrap;html=1;fillColor=#B2C9AB;strokeColor=#788AA3;fontColor=#46495D;" parent="1" vertex="1">
          <mxGeometry x="270" y="360" width="20" height="60" as="geometry" />
        </mxCell>
        <mxCell id="gUNRV8-Y0UdjDV8tnXYS-31" value="" style="endArrow=none;dashed=1;html=1;strokeColor=#788AA3;fontColor=#46495D;" parent="1" source="gUNRV8-Y0UdjDV8tnXYS-41" target="gUNRV8-Y0UdjDV8tnXYS-29" edge="1">
          <mxGeometry width="50" height="50" relative="1" as="geometry">
            <mxPoint x="329.5" y="1010" as="sourcePoint" />
            <mxPoint x="329.97887323943655" y="330" as="targetPoint" />
          </mxGeometry>
        </mxCell>
        <mxCell id="gUNRV8-Y0UdjDV8tnXYS-33" value="" style="rounded=0;whiteSpace=wrap;html=1;fillColor=#B2C9AB;strokeColor=#788AA3;fontColor=#46495D;" parent="1" vertex="1">
          <mxGeometry x="730" y="170" width="20" height="60" as="geometry" />
        </mxCell>
        <mxCell id="gUNRV8-Y0UdjDV8tnXYS-34" value="" style="endArrow=none;dashed=1;html=1;strokeColor=#788AA3;fontColor=#46495D;" parent="1" source="gUNRV8-Y0UdjDV8tnXYS-77" target="gUNRV8-Y0UdjDV8tnXYS-33" edge="1">
          <mxGeometry width="50" height="50" relative="1" as="geometry">
            <mxPoint x="739.8846153846152" y="260" as="sourcePoint" />
            <mxPoint x="739.5" y="160" as="targetPoint" />
          </mxGeometry>
        </mxCell>
        <mxCell id="gUNRV8-Y0UdjDV8tnXYS-35" value="" style="endArrow=classic;html=1;strokeColor=#788AA3;fillColor=#B2C9AB;fontColor=#46495D;exitX=1;exitY=0.5;exitDx=0;exitDy=0;entryX=0;entryY=0.5;entryDx=0;entryDy=0;" parent="1" source="gUNRV8-Y0UdjDV8tnXYS-18" target="gUNRV8-Y0UdjDV8tnXYS-33" edge="1">
          <mxGeometry width="50" height="50" relative="1" as="geometry">
            <mxPoint x="390" y="540" as="sourcePoint" />
            <mxPoint x="440" y="490" as="targetPoint" />
          </mxGeometry>
        </mxCell>
        <mxCell id="gUNRV8-Y0UdjDV8tnXYS-36" value="2.调用明源锁房接口" style="text;html=1;align=center;verticalAlign=middle;resizable=0;points=[];autosize=1;fontColor=#46495D;" parent="1" vertex="1">
          <mxGeometry x="305" y="180" width="120" height="20" as="geometry" />
        </mxCell>
        <mxCell id="gUNRV8-Y0UdjDV8tnXYS-41" value="" style="rounded=0;whiteSpace=wrap;html=1;fillColor=#B2C9AB;strokeColor=#788AA3;fontColor=#46495D;" parent="1" vertex="1">
          <mxGeometry x="270" y="450" width="20" height="60" as="geometry" />
        </mxCell>
        <mxCell id="gUNRV8-Y0UdjDV8tnXYS-42" value="" style="endArrow=none;dashed=1;html=1;strokeColor=#788AA3;fontColor=#46495D;" parent="1" source="gUNRV8-Y0UdjDV8tnXYS-55" target="gUNRV8-Y0UdjDV8tnXYS-41" edge="1">
          <mxGeometry width="50" height="50" relative="1" as="geometry">
            <mxPoint x="283" y="1020" as="sourcePoint" />
            <mxPoint x="329.9758064516129" y="420" as="targetPoint" />
          </mxGeometry>
        </mxCell>
        <mxCell id="gUNRV8-Y0UdjDV8tnXYS-43" value="" style="rounded=0;whiteSpace=wrap;html=1;fillColor=#B2C9AB;strokeColor=#788AA3;fontColor=#46495D;" parent="1" vertex="1">
          <mxGeometry x="530" y="450" width="20" height="60" as="geometry" />
        </mxCell>
        <mxCell id="gUNRV8-Y0UdjDV8tnXYS-44" value="" style="endArrow=none;dashed=1;html=1;strokeColor=#788AA3;fontColor=#46495D;" parent="1" target="gUNRV8-Y0UdjDV8tnXYS-43" edge="1">
          <mxGeometry width="50" height="50" relative="1" as="geometry">
            <mxPoint x="539.5" y="910" as="sourcePoint" />
            <mxPoint x="539.5" y="160" as="targetPoint" />
          </mxGeometry>
        </mxCell>
        <mxCell id="gUNRV8-Y0UdjDV8tnXYS-45" value="" style="endArrow=classic;html=1;strokeColor=#788AA3;fillColor=#B2C9AB;fontColor=#46495D;exitX=1;exitY=0.25;exitDx=0;exitDy=0;entryX=0;entryY=0.25;entryDx=0;entryDy=0;" parent="1" source="gUNRV8-Y0UdjDV8tnXYS-41" target="gUNRV8-Y0UdjDV8tnXYS-43" edge="1">
          <mxGeometry width="50" height="50" relative="1" as="geometry">
            <mxPoint x="390" y="740" as="sourcePoint" />
            <mxPoint x="440" y="690" as="targetPoint" />
          </mxGeometry>
        </mxCell>
        <mxCell id="gUNRV8-Y0UdjDV8tnXYS-46" value="5.调用支付方付款接口" style="text;html=1;align=center;verticalAlign=middle;resizable=0;points=[];autosize=1;fontColor=#46495D;" parent="1" vertex="1">
          <mxGeometry x="305" y="440" width="130" height="20" as="geometry" />
        </mxCell>
        <mxCell id="gUNRV8-Y0UdjDV8tnXYS-48" value="" style="endArrow=classic;html=1;strokeColor=#788AA3;fillColor=#B2C9AB;fontColor=#46495D;entryX=1;entryY=0.75;entryDx=0;entryDy=0;exitX=0;exitY=0.75;exitDx=0;exitDy=0;" parent="1" source="gUNRV8-Y0UdjDV8tnXYS-43" target="gUNRV8-Y0UdjDV8tnXYS-41" edge="1">
          <mxGeometry width="50" height="50" relative="1" as="geometry">
            <mxPoint x="390" y="740" as="sourcePoint" />
            <mxPoint x="440" y="690" as="targetPoint" />
          </mxGeometry>
        </mxCell>
        <mxCell id="gUNRV8-Y0UdjDV8tnXYS-49" value="6.支付方回调旭客返回支付成功信息" style="text;html=1;align=center;verticalAlign=middle;resizable=0;points=[];autosize=1;fontColor=#46495D;" parent="1" vertex="1">
          <mxGeometry x="300" y="470" width="210" height="20" as="geometry" />
        </mxCell>
        <mxCell id="gUNRV8-Y0UdjDV8tnXYS-55" value="" style="rounded=0;whiteSpace=wrap;html=1;fillColor=#B2C9AB;strokeColor=#788AA3;fontColor=#46495D;" parent="1" vertex="1">
          <mxGeometry x="270" y="540" width="20" height="60" as="geometry" />
        </mxCell>
        <mxCell id="gUNRV8-Y0UdjDV8tnXYS-57" value="" style="endArrow=none;dashed=1;html=1;strokeColor=#788AA3;fontColor=#46495D;" parent="1" source="gUNRV8-Y0UdjDV8tnXYS-67" target="gUNRV8-Y0UdjDV8tnXYS-55" edge="1">
          <mxGeometry width="50" height="50" relative="1" as="geometry">
            <mxPoint x="283" y="1020.0000000000002" as="sourcePoint" />
            <mxPoint x="280.16666666666674" y="510" as="targetPoint" />
          </mxGeometry>
        </mxCell>
        <mxCell id="gUNRV8-Y0UdjDV8tnXYS-58" value="" style="rounded=0;whiteSpace=wrap;html=1;fillColor=#B2C9AB;strokeColor=#788AA3;fontColor=#46495D;" parent="1" vertex="1">
          <mxGeometry x="730" y="540" width="20" height="60" as="geometry" />
        </mxCell>
        <mxCell id="gUNRV8-Y0UdjDV8tnXYS-61" value="" style="endArrow=none;dashed=1;html=1;strokeColor=#788AA3;fontColor=#46495D;" parent="1" source="gUNRV8-Y0UdjDV8tnXYS-64" target="gUNRV8-Y0UdjDV8tnXYS-58" edge="1">
          <mxGeometry width="50" height="50" relative="1" as="geometry">
            <mxPoint x="739.4999999999998" y="1010.0000000000002" as="sourcePoint" />
            <mxPoint x="739.9758064516132" y="420" as="targetPoint" />
          </mxGeometry>
        </mxCell>
        <mxCell id="gUNRV8-Y0UdjDV8tnXYS-62" value="" style="endArrow=classic;html=1;strokeColor=#788AA3;fillColor=#B2C9AB;fontColor=#46495D;exitX=1;exitY=0.5;exitDx=0;exitDy=0;entryX=0;entryY=0.5;entryDx=0;entryDy=0;" parent="1" source="gUNRV8-Y0UdjDV8tnXYS-55" target="gUNRV8-Y0UdjDV8tnXYS-58" edge="1">
          <mxGeometry width="50" height="50" relative="1" as="geometry">
            <mxPoint x="410" y="540" as="sourcePoint" />
            <mxPoint x="460" y="490" as="targetPoint" />
          </mxGeometry>
        </mxCell>
        <mxCell id="gUNRV8-Y0UdjDV8tnXYS-63" value="7.调用明源实收款接口，传递付款信息" style="text;html=1;align=center;verticalAlign=middle;resizable=0;points=[];autosize=1;fontColor=#46495D;" parent="1" vertex="1">
          <mxGeometry x="295" y="550" width="220" height="20" as="geometry" />
        </mxCell>
        <mxCell id="gUNRV8-Y0UdjDV8tnXYS-64" value="" style="rounded=0;whiteSpace=wrap;html=1;fillColor=#B2C9AB;strokeColor=#788AA3;fontColor=#46495D;" parent="1" vertex="1">
          <mxGeometry x="730" y="630" width="20" height="60" as="geometry" />
        </mxCell>
        <mxCell id="gUNRV8-Y0UdjDV8tnXYS-66" value="" style="endArrow=none;dashed=1;html=1;strokeColor=#788AA3;fontColor=#46495D;" parent="1" target="gUNRV8-Y0UdjDV8tnXYS-64" edge="1">
          <mxGeometry width="50" height="50" relative="1" as="geometry">
            <mxPoint x="739.4999999999998" y="910.0000000000002" as="sourcePoint" />
            <mxPoint x="739.965909090909" y="500" as="targetPoint" />
          </mxGeometry>
        </mxCell>
        <mxCell id="gUNRV8-Y0UdjDV8tnXYS-67" value="" style="rounded=0;whiteSpace=wrap;html=1;fillColor=#B2C9AB;strokeColor=#788AA3;fontColor=#46495D;" parent="1" vertex="1">
          <mxGeometry x="270" y="630" width="20" height="60" as="geometry" />
        </mxCell>
        <mxCell id="gUNRV8-Y0UdjDV8tnXYS-69" value="" style="endArrow=none;dashed=1;html=1;strokeColor=#788AA3;fontColor=#46495D;" parent="1" target="gUNRV8-Y0UdjDV8tnXYS-67" edge="1">
          <mxGeometry width="50" height="50" relative="1" as="geometry">
            <mxPoint x="283" y="920.0000000000002" as="sourcePoint" />
            <mxPoint x="280.20000000000005" y="500" as="targetPoint" />
          </mxGeometry>
        </mxCell>
        <mxCell id="gUNRV8-Y0UdjDV8tnXYS-70" value="" style="endArrow=classic;html=1;strokeColor=#788AA3;fillColor=#B2C9AB;fontColor=#46495D;entryX=1;entryY=0.5;entryDx=0;entryDy=0;exitX=0;exitY=0.5;exitDx=0;exitDy=0;" parent="1" source="gUNRV8-Y0UdjDV8tnXYS-64" target="gUNRV8-Y0UdjDV8tnXYS-67" edge="1">
          <mxGeometry width="50" height="50" relative="1" as="geometry">
            <mxPoint x="410" y="540" as="sourcePoint" />
            <mxPoint x="460" y="490" as="targetPoint" />
          </mxGeometry>
        </mxCell>
        <mxCell id="gUNRV8-Y0UdjDV8tnXYS-71" value="8.明源调用旭客业务归属时间接口，把业务归属时间传给旭客" style="text;html=1;align=center;verticalAlign=middle;resizable=0;points=[];autosize=1;fontColor=#46495D;" parent="1" vertex="1">
          <mxGeometry x="300" y="640" width="340" height="20" as="geometry" />
        </mxCell>
        <mxCell id="gUNRV8-Y0UdjDV8tnXYS-72" value="" style="rounded=0;whiteSpace=wrap;html=1;fillColor=#B2C9AB;strokeColor=#788AA3;fontColor=#46495D;" parent="1" vertex="1">
          <mxGeometry x="270" y="270" width="20" height="60" as="geometry" />
        </mxCell>
        <mxCell id="gUNRV8-Y0UdjDV8tnXYS-73" value="" style="endArrow=none;dashed=1;html=1;strokeColor=#788AA3;fontColor=#46495D;" parent="1" source="gUNRV8-Y0UdjDV8tnXYS-29" target="gUNRV8-Y0UdjDV8tnXYS-72" edge="1">
          <mxGeometry width="50" height="50" relative="1" as="geometry">
            <mxPoint x="280" y="340" as="sourcePoint" />
            <mxPoint x="280" y="230" as="targetPoint" />
          </mxGeometry>
        </mxCell>
        <mxCell id="gUNRV8-Y0UdjDV8tnXYS-76" value="" style="endArrow=classic;html=1;strokeColor=#788AA3;fillColor=#B2C9AB;fontColor=#46495D;entryX=0;entryY=0.5;entryDx=0;entryDy=0;exitX=1;exitY=0.5;exitDx=0;exitDy=0;" parent="1" source="gUNRV8-Y0UdjDV8tnXYS-72" target="gUNRV8-Y0UdjDV8tnXYS-77" edge="1">
          <mxGeometry width="50" height="50" relative="1" as="geometry">
            <mxPoint x="410" y="440" as="sourcePoint" />
            <mxPoint x="460" y="390" as="targetPoint" />
          </mxGeometry>
        </mxCell>
        <mxCell id="gUNRV8-Y0UdjDV8tnXYS-77" value="" style="rounded=0;whiteSpace=wrap;html=1;fillColor=#B2C9AB;strokeColor=#788AA3;fontColor=#46495D;" parent="1" vertex="1">
          <mxGeometry x="730" y="270" width="20" height="60" as="geometry" />
        </mxCell>
        <mxCell id="gUNRV8-Y0UdjDV8tnXYS-80" value="" style="endArrow=none;dashed=1;html=1;strokeColor=#788AA3;fontColor=#46495D;" parent="1" source="gUNRV8-Y0UdjDV8tnXYS-22" target="gUNRV8-Y0UdjDV8tnXYS-77" edge="1">
          <mxGeometry width="50" height="50" relative="1" as="geometry">
            <mxPoint x="740.0000000000002" y="360" as="sourcePoint" />
            <mxPoint x="740.0000000000002" y="230" as="targetPoint" />
          </mxGeometry>
        </mxCell>
        <mxCell id="gUNRV8-Y0UdjDV8tnXYS-81" value="3.调用明源机会同步接口" style="text;html=1;align=center;verticalAlign=middle;resizable=0;points=[];autosize=1;fontColor=#46495D;" parent="1" vertex="1">
          <mxGeometry x="300" y="280" width="150" height="20" as="geometry" />
        </mxCell>
      </root>
    </mxGraphModel>
  </diagram>
</mxfile>
